<svg viewBox="-4.17 -4.17 77.79 77.79" xmlns="http://www.w3.org/2000/svg" fill="#000000" stroke="#000000" stroke-width="0.06944700000000001"><g id="SVGRepo_bgCarrier" stroke-width="0"></g><g id="SVGRepo_tracerCarrier" stroke-linecap="round" stroke-linejoin="round" stroke="#CCCCCC" stroke-width="1.1111520000000001"></g><g id="SVGRepo_iconCarrier"> <g id="tennis_ball" data-name="tennis ball" transform="translate(-1271.769 -1574.648)"> <path id="Path_85" data-name="Path 85" d="M1341.208,1609.372a34.719,34.719,0,1,1-34.72-34.724A34.724,34.724,0,0,1,1341.208,1609.372Z" fill="#b9d613"></path> <path id="Path_86" data-name="Path 86" d="M1311.144,1574.993a35.139,35.139,0,0,0-4.61-.344,41.069,41.069,0,0,1-34.369,29.735,34.3,34.3,0,0,0-.381,4.635l.183-.026a45.921,45.921,0,0,0,39.149-33.881Zm29.721,34.692a45.487,45.487,0,0,0-33.488,34.054l-.071.313a34.54,34.54,0,0,0,4.818-.455,41.218,41.218,0,0,1,28.686-29.194,36.059,36.059,0,0,0,.388-4.8Z" fill="#f7f7f7"></path> </g> </g></svg>