<svg height="200px" width="200px" version="1.1" id="Layer_1" xmlns="http://www.w3.org/2000/svg" xmlns:xlink="http://www.w3.org/1999/xlink" viewBox="0 0 512 512" xml:space="preserve" fill="#000000" stroke="#000000" stroke-width="0.512"><g id="SVGRepo_bgCarrier" stroke-width="0"></g><g id="SVGRepo_tracerCarrier" stroke-linecap="round" stroke-linejoin="round" stroke="#CCCCCC" stroke-width="6.144"></g><g id="SVGRepo_iconCarrier"> <path style="fill:#ad441a;" d="M459.776,130.867C473.259,172.908,512,281.304,512,309.476c0,57.287-34.224,109.352-93.901,142.825 C373.385,477.377,315.824,491.19,256,491.19s-117.385-13.813-162.099-38.889C34.224,418.827,0,366.763,0,309.476 c0-28.171,38.741-136.567,52.224-178.608c9.444-29.423,30.948-57.958,65.695-77.437C155.42,32.393,204.459,20.81,256,20.81 s100.58,11.583,138.081,32.62C428.828,72.909,450.332,101.444,459.776,130.867z"></path> <path style="fill:#593120;" d="M424.016,142.234c-12.14,31.846-168.004,90.829-168.004,90.829S102.4,170.667,87.984,142.234 C97.849,95.095,169.313,58.516,256,58.516S414.151,95.095,424.016,142.234z"></path> <path style="fill:#593120;" d="M424.016,142.234c0.762,3.675,1.161,7.396,1.161,11.184c0,52.417-75.742,94.902-169.176,94.902 S86.824,205.835,86.824,153.418c0-3.789,0.398-7.509,1.161-11.184c9.307,7.009,20.867,11.184,33.417,11.184 c18.409,0,34.736-8.988,44.874-22.756c10.16,13.767,26.442,22.756,44.863,22.756c18.409,0,34.702-8.988,44.874-22.756 c10.149,13.767,26.442,22.756,44.851,22.756c18.421,0,34.736-8.988,44.874-22.756c10.16,13.767,26.431,22.756,44.863,22.756 C403.137,153.418,414.709,149.242,424.016,142.234z"></path> </g></svg>